<svg width="46" height="44" viewBox="0 0 46 44" fill="none" xmlns="http://www.w3.org/2000/svg">
<path fill-rule="evenodd" clip-rule="evenodd" d="M1 0C0.447715 0 0 0.447715 0 1C0 1.55228 0.447715 2 1 2H8.18032L10.0098 11.1407C10.0152 11.179 10.0228 11.2165 10.0324 11.2533L13.3792 27.9748L13.3793 27.9756C13.6081 29.1263 14.2341 30.1599 15.148 30.8956C16.0595 31.6293 17.1994 32.0201 18.3691 32H37.7909C38.9606 32.0201 40.1005 31.6293 41.012 30.8956C41.9261 30.1597 42.5522 29.1258 42.7808 27.9748L42.7809 27.9748L42.7823 27.9673L45.9823 11.1873C46.0381 10.8946 45.9605 10.5922 45.7705 10.3626C45.5805 10.1329 45.298 10 45 10H11.8212L9.98055 0.803743C9.88701 0.336385 9.47663 0 9 0H1ZM15.3406 27.5837L12.2215 12H43.7913L40.8192 27.5852L40.8185 27.5886C40.6808 28.2778 40.3054 28.8968 39.7578 29.3376C39.2094 29.7791 38.5231 30.0137 37.8192 30.0002L37.8 30H18.36L18.3408 30.0002C17.6369 30.0137 16.9506 29.7791 16.4022 29.3376C15.8537 28.8961 15.478 28.2758 15.3408 27.5852L15.3406 27.5837ZM17 40C16.4477 40 16 40.4477 16 41C16 41.5523 16.4477 42 17 42C17.5523 42 18 41.5523 18 41C18 40.4477 17.5523 40 17 40ZM14 41C14 39.3431 15.3431 38 17 38C18.6569 38 20 39.3431 20 41C20 42.6569 18.6569 44 17 44C15.3431 44 14 42.6569 14 41ZM39 40C38.4477 40 38 40.4477 38 41C38 41.5523 38.4477 42 39 42C39.5523 42 40 41.5523 40 41C40 40.4477 39.5523 40 39 40ZM36 41C36 39.3431 37.3431 38 39 38C40.6569 38 42 39.3431 42 41C42 42.6569 40.6569 44 39 44C37.3431 44 36 42.6569 36 41Z" fill="#F2F2F2"/>
</svg>
