<svg width="71" height="57" viewBox="0 0 71 57" fill="none" xmlns="http://www.w3.org/2000/svg">
<path fill-rule="evenodd" clip-rule="evenodd" d="M50.2105 0L51.2446 10.6666L41.49 15.1043L40.4559 4.43769L50.2105 0ZM42.5844 5.6666L43.2105 12.1244L49.1161 9.43769L48.49 2.97993L42.5844 5.6666ZM33.8195 16.4898L47.1791 31.9047L53.8099 29.8645L61.2486 42.4529L33.8502 56.6789L6.12077 42.281L19.8803 29.668L21.7673 31.555L33.8195 16.4898ZM33.881 19.6145L21.9332 34.5493L19.8202 32.4363L9.5797 41.8234L33.8502 54.4254L58.4519 41.6515L52.8905 32.2399L46.5214 34.1996L33.881 19.6145ZM28.0747 4.4377L18.3201 8.58307e-06L17.2859 10.6666L27.0406 15.1043L28.0747 4.4377ZM25.3201 12.1244L19.4145 9.4377L20.0406 2.97994L25.9462 5.6666L25.3201 12.1244ZM0 20.509L10.6841 21.3428L13.3605 31.7198L2.6764 30.886L0 20.509ZM4.25625 29.0032L10.7246 29.508L9.10428 23.2256L2.63591 22.7208L4.25625 29.0032ZM67.4303 30.886L70.1067 20.5089L59.4226 21.3427L56.7462 31.7198L67.4303 30.886ZM59.3821 29.508L61.0024 23.2255L67.4708 22.7207L65.8504 29.0032L59.3821 29.508Z" fill="#F2F2F2"/>
</svg>
