<svg width="244" height="58" viewBox="0 0 244 58" fill="none" xmlns="http://www.w3.org/2000/svg">
<path fill-rule="evenodd" clip-rule="evenodd" d="M51.1065 0.447815L52.1406 11.1144L42.386 15.5521L41.3518 4.88551L51.1065 0.447815ZM43.4804 6.11441L44.1065 12.5722L50.0121 9.88551L49.386 3.42775L43.4804 6.11441ZM34.7155 16.9376L48.0751 32.3525L54.7059 30.3123L62.1446 42.9007L34.7462 57.1268L7.01677 42.7288L20.7763 30.1159L22.6633 32.0029L34.7155 16.9376ZM34.777 20.0623L22.8292 34.9971L20.7162 32.8841L10.4757 42.2712L34.7462 54.8732L59.3479 42.0993L53.7865 32.6877L47.4174 34.6474L34.777 20.0623ZM28.9707 4.88552L19.2161 0.447824L18.1819 11.1144L27.9366 15.5521L28.9707 4.88552ZM26.2161 12.5722L20.3105 9.88552L20.9366 3.42776L26.8422 6.11442L26.2161 12.5722ZM0.895996 20.9568L11.5801 21.7906L14.2565 32.1676L3.5724 31.3338L0.895996 20.9568ZM5.15225 29.451L11.6206 29.9558L10.0003 23.6734L3.5319 23.1686L5.15225 29.451ZM68.3263 31.3338L71.0027 20.9568L60.3186 21.7905L57.6422 32.1676L68.3263 31.3338ZM60.2781 29.9558L61.8984 23.6733L68.3668 23.1685L66.7464 29.451L60.2781 29.9558ZM107.13 7.06398V27H103.238V15.38L99.4302 22.94H96.7982L92.9622 15.38V27H89.0702V7.06398H92.9062L98.1142 17.844L103.294 7.06398H107.13ZM123.442 12.412V27H119.886V25.656C118.934 26.664 117.59 27.168 116.246 27.168C114.79 27.168 113.614 26.692 112.802 25.88C111.626 24.704 111.318 23.332 111.318 21.736V12.412H114.958V21.232C114.958 23.22 116.218 23.892 117.366 23.892C118.514 23.892 119.802 23.22 119.802 21.232V12.412H123.442ZM139.156 27V7.06398H135.516V13.7C134.564 12.636 133.444 12.244 131.96 12.244C130.532 12.244 129.216 12.748 128.404 13.56C126.948 15.016 126.92 17.508 126.92 19.692C126.92 21.876 126.948 24.396 128.404 25.852C129.216 26.664 130.56 27.168 131.988 27.168C133.528 27.168 134.592 26.748 135.6 25.628V27H139.156ZM135.516 19.692C135.516 22.072 135.208 23.892 133.024 23.892C130.84 23.892 130.56 22.072 130.56 19.692C130.56 17.312 130.84 15.52 133.024 15.52C135.208 15.52 135.516 17.312 135.516 19.692ZM154.852 7.06398V27H151.296V25.628C150.288 26.748 149.224 27.168 147.684 27.168C146.256 27.168 144.912 26.664 144.1 25.852C142.644 24.396 142.616 21.876 142.616 19.692C142.616 17.508 142.644 15.016 144.1 13.56C144.912 12.748 146.228 12.244 147.656 12.244C149.14 12.244 150.26 12.636 151.212 13.7V7.06398H154.852ZM148.72 23.892C150.904 23.892 151.212 22.072 151.212 19.692C151.212 17.312 150.904 15.52 148.72 15.52C146.536 15.52 146.256 17.312 146.256 19.692C146.256 22.072 146.536 23.892 148.72 23.892ZM170.603 12.412H166.767L163.855 21.428L160.831 12.412H156.995L161.979 25.964L161.363 27.756C160.999 28.82 160.579 29.072 159.543 29.072H158.703V32.348H160.131C161.335 32.348 162.427 32.068 163.267 31.228C163.715 30.78 164.051 30.164 164.359 29.352L170.603 12.412ZM187.279 7.06398C191.395 7.06398 193.859 9.89198 193.859 13.28C193.859 16.668 191.395 19.496 187.279 19.496H183.443V27H179.551V7.06398H187.279ZM187.083 15.996C188.847 15.996 189.967 14.904 189.967 13.28C189.967 11.656 188.847 10.536 187.083 10.536H183.443V15.996H187.083ZM207.611 27V17.396C207.611 13.98 205.483 12.244 201.395 12.244C198.959 12.244 197.559 12.692 196.131 14.26L198.455 16.528C199.211 15.66 199.855 15.324 201.255 15.324C203.187 15.324 203.971 16.024 203.971 17.62V18.348H200.527C197.139 18.348 195.543 20.252 195.543 22.576C195.543 23.864 195.963 25.04 196.747 25.852C197.615 26.72 198.819 27.14 200.471 27.14C202.151 27.14 203.075 26.72 204.055 25.74V27H207.611ZM203.971 21.624C203.971 22.52 203.831 23.108 203.439 23.472C202.795 24.088 202.151 24.172 201.143 24.172C199.715 24.172 199.043 23.5 199.043 22.492C199.043 21.456 199.771 20.84 201.087 20.84H203.971V21.624ZM226.796 12.412H230.632L226.18 27H223.184L220.132 17.844L217.08 27H214.084L209.604 12.412H213.468L215.82 21.428L218.788 12.412H221.448L224.444 21.428L226.796 12.412ZM243.758 22.408C243.758 19.944 242.302 18.404 239.418 18.124L237.122 17.9C235.834 17.788 235.61 17.172 235.61 16.64C235.61 15.912 236.226 15.24 237.682 15.24C238.942 15.24 240.23 15.464 241.07 16.22L243.31 13.952C241.91 12.636 240.006 12.244 237.738 12.244C234.77 12.244 232.11 13.868 232.11 16.892C232.11 19.58 233.734 20.728 236.366 20.98L238.662 21.204C239.81 21.316 240.202 21.82 240.202 22.548C240.202 23.64 238.886 24.06 237.626 24.06C236.506 24.06 234.938 23.892 233.734 22.688L231.354 25.068C233.202 26.916 235.274 27.168 237.57 27.168C241.014 27.168 243.758 25.628 243.758 22.408ZM199.702 45.472V44.248H196.522V45.64H198.034V45.94C198.034 46.36 197.938 46.804 197.662 47.104C197.386 47.404 197.026 47.584 196.522 47.584C196.066 47.584 195.694 47.416 195.454 47.14C195.13 46.78 195.046 46.372 195.046 44.728C195.046 43.084 195.13 42.688 195.454 42.328C195.694 42.052 196.066 41.872 196.522 41.872C197.182 41.872 197.53 42.124 198.01 42.604L199.138 41.476C198.37 40.708 197.71 40.384 196.522 40.384C195.562 40.384 194.818 40.72 194.218 41.32C193.377 42.1611 193.377 43.1955 193.378 44.6115L193.378 44.728L193.378 44.8445C193.377 46.2605 193.377 47.2949 194.218 48.136C194.818 48.736 195.586 49.072 196.522 49.072C197.494 49.072 198.298 48.724 198.91 48.088C199.51 47.464 199.702 46.708 199.702 45.472ZM91.2222 40.456L94.3422 49H92.6022L92.0982 47.488H89.0622L88.5462 49H86.8062L89.9142 40.456H91.2222ZM89.5302 46.084H91.6542L90.6102 42.976L89.5302 46.084ZM104 44.3709C103.999 44.4771 103.999 44.5842 103.999 44.692C103.999 44.7994 103.999 44.9065 104 45.0133C104.007 46.1828 104.014 47.3043 103.135 48.184C102.571 48.748 101.767 49 100.879 49H97.7945V40.456H100.879C101.767 40.456 102.571 40.708 103.135 41.272C104.014 42.1514 104.007 43.212 104 44.3709ZM101.971 46.984C102.283 46.6 102.331 45.988 102.331 44.692C102.331 43.396 102.283 42.856 101.971 42.472C101.683 42.124 101.299 41.944 100.723 41.944H99.4625V47.512H100.723C101.299 47.512 101.683 47.332 101.971 46.984ZM113.928 40.456H112.188L110.472 46.024L108.756 40.456H107.028L109.848 49H111.096L113.928 40.456ZM123.9 40.456V49H122.412L119.028 43.756V49H117.36V40.456H118.848L122.232 45.688V40.456H123.9ZM133.919 49V47.512H129.959V45.436H133.331V43.948H129.959V41.944H133.919V40.456H128.291V49H133.919ZM144.497 40.456V49H143.009L139.625 43.756V49H137.957V40.456H139.445L142.829 45.688V40.456H144.497ZM154.384 41.944V40.456H148.252V41.944H150.484V49H152.152V41.944H154.384ZM164.3 40.456V46.072C164.3 47.884 162.908 49.072 161.156 49.072C159.404 49.072 158.012 47.884 158.012 46.072V40.456H159.68V46.012C159.68 46.996 160.256 47.584 161.156 47.584C162.056 47.584 162.644 46.996 162.644 46.012V40.456H164.3ZM175.027 49L173.119 45.316C173.947 45.016 174.679 44.272 174.679 43.072C174.679 41.644 173.647 40.456 171.907 40.456H168.559V49H170.227V45.592H171.427L173.095 49H175.027ZM173.011 43.072C173.011 43.732 172.531 44.2 171.799 44.2H170.227V41.944H171.799C172.531 41.944 173.011 42.412 173.011 43.072ZM184.439 47.512V49H178.811V40.456H184.439V41.944H180.479V43.948H183.851V45.436H180.479V47.512H184.439ZM209.334 47.512V49H203.706V40.456H209.334V41.944H205.374V43.948H208.746V45.436H205.374V47.512H209.334ZM216.852 40.456H215.544L212.436 49H214.176L214.692 47.488H217.728L218.232 49H219.972L216.852 40.456ZM217.284 46.084H215.16L216.24 42.976L217.284 46.084ZM227.984 45.316L229.892 49H227.96L226.292 45.592H225.092V49H223.424V40.456H226.772C228.512 40.456 229.544 41.644 229.544 43.072C229.544 44.272 228.812 45.016 227.984 45.316ZM226.664 44.2C227.396 44.2 227.876 43.732 227.876 43.072C227.876 42.412 227.396 41.944 226.664 41.944H225.092V44.2H226.664Z" fill="#F2F2F2"/>
</svg>
